<?xml version="1.0" standalone="no"?>
<!DOCTYPE svg PUBLIC "-//W3C//DTD SVG 20010904//EN"
 "http://www.w3.org/TR/2001/REC-SVG-20010904/DTD/svg10.dtd">
<svg version="1.0" xmlns="http://www.w3.org/2000/svg"
 width="1000.000000pt" height="1000.000000pt" viewBox="0 0 1000.000000 1000.000000"
 preserveAspectRatio="xMidYMid meet">

<g transform="translate(0.000000,1000.000000) scale(0.100000,-0.100000)"
fill="#000000" stroke="none">
<path d="M0 5000 l0 -5000 5000 0 5000 0 0 5000 0 5000 -5000 0 -5000 0 0
-5000z m5184 4290 c29 -27 58 -50 63 -50 6 0 13 -7 16 -14 4 -11 16 -13 41 -9
l36 6 0 -41 c0 -39 1 -40 38 -45 99 -15 140 -25 169 -40 18 -9 41 -17 53 -17
26 0 202 -88 213 -106 4 -8 14 -14 21 -14 7 0 21 -9 31 -20 10 -11 24 -20 30
-20 7 0 18 -7 25 -16 8 -8 44 -29 82 -46 37 -17 68 -35 68 -39 0 -9 58 -39 77
-39 7 0 13 -9 13 -20 0 -13 7 -20 20 -20 19 0 81 -36 111 -65 9 -8 21 -15 29
-15 38 0 140 -153 140 -212 0 -15 5 -28 10 -28 7 0 10 -157 10 -450 0 -247 2
-450 5 -450 3 0 13 4 23 9 9 5 28 14 42 20 14 6 32 15 40 20 8 5 40 18 70 29
128 46 191 62 244 62 31 0 56 4 56 10 0 5 43 11 97 12 l97 3 15 48 c15 48 38
67 27 21 -4 -15 -3 -23 3 -20 5 3 12 -28 15 -72 12 -137 13 -129 -43 -186 -31
-31 -51 -60 -51 -74 0 -23 1 -22 48 9 26 18 61 45 78 61 l31 29 7 -59 c4 -33
4 -78 0 -101 -7 -45 -1 -50 29 -23 10 9 44 31 76 47 l56 30 3 65 c5 101 -3
129 -43 146 -18 7 -36 18 -40 24 -3 5 -15 10 -27 10 -14 0 -18 5 -14 15 7 19
1 19 -28 -1 -23 -14 -25 -14 -40 8 -9 12 -16 32 -16 45 0 12 -7 28 -15 37 -8
8 -15 21 -15 28 0 8 -11 24 -25 36 -20 17 -25 31 -25 65 0 31 -6 49 -20 62
-27 24 -26 77 2 118 40 57 71 87 91 87 16 0 13 -5 -14 -23 -79 -53 -104 -146
-51 -187 30 -24 76 -46 140 -66 38 -12 48 -12 73 2 34 17 49 12 49 -17 0 -22
4 -23 31 -8 11 6 17 15 12 22 -4 7 0 6 10 -2 17 -13 17 -15 0 -35 -18 -21 -18
-21 3 -3 27 23 46 22 86 -5 77 -53 128 -132 128 -200 0 -30 4 -38 19 -38 28 0
228 -104 306 -159 39 -27 98 -63 131 -80 34 -17 67 -38 74 -46 7 -8 18 -15 24
-15 7 0 25 -13 41 -30 16 -16 33 -30 39 -30 12 0 106 -91 106 -103 0 -4 9 -17
20 -29 12 -13 20 -36 20 -55 0 -18 5 -33 10 -33 7 0 10 -333 10 -978 l0 -977
80 -80 c44 -44 80 -85 80 -91 0 -6 9 -19 20 -29 11 -10 20 -28 20 -40 0 -12 9
-30 20 -40 19 -17 20 -31 20 -372 0 -194 -3 -353 -7 -353 -11 0 -33 -50 -33
-72 0 -10 -18 -34 -40 -54 -22 -20 -40 -45 -40 -55 0 -12 -7 -19 -18 -19 -10
0 -36 -18 -57 -40 -21 -22 -45 -40 -52 -40 -8 0 -49 -18 -92 -39 -111 -56
-329 -138 -441 -166 -269 -67 -536 -70 -792 -9 -60 14 -108 28 -108 31 0 2 15
2 33 -1 17 -3 26 -3 19 0 -10 5 -8 10 7 21 15 10 21 25 21 52 0 21 -3 41 -7
45 -7 7 -11 32 -14 88 -1 21 -4 36 -8 34 -3 -2 -7 19 -7 47 -1 29 -5 77 -9
107 -3 30 -6 91 -6 135 0 44 0 87 0 95 0 8 -2 166 -4 350 -2 184 -6 396 -9
470 -4 74 -9 222 -11 329 -3 107 -8 198 -11 202 -3 5 0 9 5 9 6 0 11 20 11 44
0 25 5 48 10 51 14 9 12 31 -5 48 -12 13 10 15 183 20 275 7 264 3 730 236
316 157 347 176 415 240 39 38 49 43 57 31 6 -10 10 38 10 140 0 85 3 229 6
320 l6 165 -25 -42 c-42 -70 -77 -111 -126 -147 -68 -50 -689 -360 -779 -390
-42 -14 -108 -30 -146 -37 -97 -16 -321 -6 -413 19 l-73 20 0 -1260 c0 -1380
4 -1288 -60 -1341 -44 -37 -971 -498 -1060 -527 -68 -23 -91 -25 -250 -25
-175 0 -175 0 -280 37 -98 33 -109 35 -165 26 -99 -16 -483 -3 -596 21 -228
47 -350 100 -440 193 -31 32 -60 58 -63 58 -3 0 -6 -13 -6 -29 0 -17 -4 -32
-8 -35 -4 -2 -9 -24 -11 -47 -1 -23 -4 -46 -6 -49 -5 -7 -23 -188 -31 -300 -2
-36 -6 -78 -8 -93 -2 -16 3 -34 10 -42 12 -11 3 -16 -57 -29 -255 -59 -647
-40 -879 40 -95 34 -129 51 -270 137 -292 178 -342 232 -384 415 -9 40 -10 60
-3 55 6 -4 8 0 4 10 -8 22 2 22 20 0 10 -13 13 -14 10 -3 -2 8 4 25 15 37 16
17 18 25 9 42 -10 17 -9 21 4 21 9 0 13 5 9 11 -4 8 0 9 15 4 17 -5 21 -2 21
17 0 18 -2 20 -10 8 -8 -13 -10 -12 -10 3 0 9 3 17 8 17 4 0 6 20 4 44 -7 81
4 93 17 18 7 -39 16 -70 21 -67 10 6 140 -121 140 -136 0 -6 5 -7 10 -4 6 3
10 2 10 -4 0 -11 62 -75 70 -73 5 2 89 -69 121 -102 11 -11 19 -16 19 -10 0 5
4 4 8 -2 10 -15 107 -77 180 -114 34 -18 65 -36 68 -41 9 -16 23 0 54 61 29
58 30 63 30 209 0 121 -4 161 -20 214 -48 156 -235 361 -405 445 -111 55 -175
62 -234 24 -28 -19 -71 -105 -71 -144 0 -16 -5 -28 -11 -28 -5 0 -7 5 -4 10 3
5 1 10 -4 10 -6 0 -11 -7 -11 -15 0 -8 -6 -12 -14 -9 -8 3 -12 15 -10 27 4 19
3 19 -8 -3 -19 -38 -35 -53 -41 -37 -2 6 -5 -26 -6 -72 -1 -47 -3 -87 -6 -89
-3 -3 -5 87 -5 199 l0 204 -117 69 c-65 37 -170 101 -233 141 -63 40 -164 102
-225 138 -60 36 -162 98 -227 138 -64 41 -165 103 -224 139 -60 36 -134 90
-166 120 l-58 56 0 -1298 0 -1299 25 -49 c14 -27 39 -65 56 -85 17 -19 26 -35
19 -35 -17 0 -68 57 -91 102 -19 37 -19 71 -20 1428 0 910 3 1396 10 1408 5
10 17 24 25 32 14 10 16 44 16 211 0 126 4 199 10 199 6 0 10 18 10 40 0 22 5
40 10 40 6 0 10 14 10 30 0 23 4 30 20 30 11 0 20 7 20 15 0 9 10 19 23 24 12
5 31 19 42 31 23 26 106 70 132 70 9 0 27 10 40 22 l23 21 0 759 c0 499 3 758
10 758 6 0 10 11 10 24 0 14 5 28 10 31 6 3 10 16 10 28 0 20 124 157 142 157
4 0 31 18 60 40 29 22 60 40 68 40 19 0 148 65 171 85 8 8 23 15 33 15 9 0 26
9 38 20 12 11 31 20 43 20 12 0 30 9 40 20 10 11 27 20 38 20 30 0 67 39 67
70 0 16 18 48 48 85 37 47 55 61 79 63 l31 3 -19 39 c-23 46 -25 130 -5 168
16 31 71 84 103 101 29 15 108 14 121 -1 8 -10 -2 -12 -49 -10 -72 4 -114 -18
-147 -76 -24 -44 -29 -118 -11 -171 12 -34 19 -37 37 -19 9 9 15 9 24 0 22
-22 75 -13 145 24 37 20 79 37 93 38 22 1 25 6 28 44 2 23 7 40 13 37 12 -8
11 -42 -3 -82 -10 -29 -9 -36 9 -61 11 -15 30 -47 42 -70 l21 -42 185 0 c112
0 186 -4 190 -10 3 -5 29 -10 58 -10 51 0 146 -24 242 -61 28 -10 55 -19 61
-19 6 0 19 -9 29 -20 10 -11 29 -20 42 -20 15 0 27 -7 30 -17 2 -10 28 -29 56
-42 29 -13 60 -31 69 -39 15 -13 106 -62 115 -62 2 0 3 171 3 380 0 247 4 380
10 380 6 0 10 17 10 38 0 26 6 41 20 50 11 7 20 18 20 25 0 23 143 147 170
147 5 0 15 9 22 20 7 11 23 20 35 20 13 0 32 9 43 20 11 11 29 20 40 20 22 0
51 15 87 44 20 17 23 29 23 82 0 35 5 66 10 69 6 3 10 17 10 30 0 25 36 59 73
71 31 9 67 44 67 66 0 12 7 18 21 18 25 0 59 -17 59 -31 0 -20 44 -69 63 -69
12 0 23 -11 30 -30 11 -29 27 -41 27 -20 0 6 11 10 24 10 14 0 28 5 31 10 3 6
24 10 46 10 21 0 39 5 39 10 0 6 27 10 60 10 33 0 60 4 60 10 0 6 7 10 16 10
18 0 37 17 47 43 3 9 13 17 22 17 8 0 15 9 15 21 0 34 41 99 62 99 5 0 33 -22
62 -50z m-2522 -887 c21 -20 38 -46 38 -58 0 -16 -3 -15 -19 11 -10 17 -34 43
-52 57 -19 15 -27 27 -19 27 8 0 31 -17 52 -37z m4721 -254 c32 -17 87 -70
103 -101 16 -32 20 -168 4 -168 -7 0 -8 17 -4 48 9 70 -8 120 -60 171 -43 42
-48 44 -105 44 -33 0 -58 4 -55 9 8 12 92 10 117 -3z m-4926 -4251 c-3 -7 -5
-2 -5 12 0 14 2 19 5 13 2 -7 2 -19 0 -25z m5995 -1890 c-13 -25 -30 -52 -37
-58 -8 -7 -15 -18 -15 -24 0 -19 -152 -162 -192 -180 -20 -9 -40 -21 -44 -27
-5 -9 -146 -79 -159 -79 -3 0 -24 -8 -48 -19 -81 -35 -96 -40 -235 -70 -77
-17 -168 -31 -201 -31 -33 0 -63 -4 -66 -10 -8 -13 -392 -13 -400 0 -3 5 -27
10 -53 10 -52 0 -292 53 -320 70 -15 10 -15 10 3 6 213 -56 365 -76 569 -76
274 0 500 37 694 112 97 38 126 52 264 135 73 43 169 145 212 224 l36 66 2
754 2 754 6 -755 5 -755 -23 -47z m-1232 1402 c-8 -5 -22 -9 -30 -9 -10 0 -8
3 5 9 27 12 43 12 25 0z m-5105 -20 c3 -5 -1 -10 -9 -10 -9 0 -16 5 -16 10 0
6 4 10 9 10 6 0 13 -4 16 -10z m5141 -26 c-7 -18 62 -137 74 -129 16 10 19
-40 3 -57 -21 -23 -9 -36 12 -14 15 15 20 13 65 -26 43 -37 47 -43 32 -54 -9
-6 -32 -15 -50 -19 -28 -6 -34 -4 -39 13 -2 11 -17 26 -31 33 -15 8 -36 23
-47 34 -28 27 -46 101 -33 136 5 16 8 36 5 46 -4 20 -3 23 -32 -69 -10 -32
-21 -55 -26 -53 -9 6 -69 -65 -69 -82 0 -7 -5 -12 -11 -10 -6 1 -12 -8 -14
-20 -2 -29 -38 -60 -77 -68 -41 -9 -44 -2 -17 41 12 21 17 34 11 30 -9 -5 -11
2 -8 28 3 21 -1 39 -8 45 -10 9 -15 -2 -20 -50 -12 -115 -12 -115 50 -154 30
-20 54 -39 52 -43 -2 -4 -14 -24 -27 -46 l-24 -38 -34 38 c-18 21 -33 44 -33
50 0 7 -20 20 -45 31 -43 17 -45 20 -45 60 0 75 22 197 41 229 25 41 77 56
196 55 l94 0 27 39 c29 42 38 50 28 24z m-36 -14 c0 -5 -10 -10 -22 -9 -22 0
-22 1 -3 9 11 5 21 9 23 9 1 1 2 -3 2 -9z m-4987 -41 c56 -19 46 -25 -14 -9
-20 6 -45 20 -55 32 -16 20 -17 21 -1 9 10 -8 41 -22 70 -32z m-53 -40 c0 -6
-4 -7 -10 -4 -5 3 -10 11 -10 16 0 6 5 7 10 4 6 -3 10 -11 10 -16z m-65 -19
c11 -17 83 -50 109 -50 53 0 102 -30 140 -85 l37 -54 -20 -100 c-33 -159 -34
-160 -123 -186 -103 -29 -145 -6 -99 56 15 21 19 34 12 46 -5 10 -14 41 -20
68 -18 76 -35 83 -27 11 5 -48 3 -61 -10 -70 -14 -11 -14 -16 -3 -33 10 -17
10 -26 -1 -52 -18 -45 -53 -39 -65 11 -5 21 -2 29 15 38 12 6 19 14 16 17 -3
3 -12 0 -20 -6 -18 -15 -22 -9 -35 65 -23 128 53 390 94 324z m5386 -190 c10
-6 19 -19 19 -28 0 -21 -27 -62 -41 -62 -15 0 -10 22 9 36 16 12 15 13 -6 14
-27 0 -41 28 -21 41 18 11 17 11 40 -1z m69 -64 c0 -11 -19 -15 -25 -6 -3 5 1
10 9 10 9 0 16 -2 16 -4z m-338 -53 c22 -20 23 -33 2 -59 -8 -10 -13 -13 -9
-6 3 6 0 12 -7 12 -8 0 -14 14 -15 35 -3 39 2 43 29 18z m302 -10 c12 -12 48
-14 40 -2 -4 7 -1 10 7 7 20 -7 28 -52 16 -97 -10 -36 -9 -43 11 -64 12 -13
22 -30 22 -39 0 -17 20 -28 50 -28 21 0 32 -23 24 -54 -5 -20 -2 -22 28 -18
30 3 36 -1 61 -40 15 -23 35 -66 44 -95 l16 -51 -26 -32 c-15 -17 -27 -38 -27
-47 0 -14 3 -13 25 1 31 21 35 20 35 -5 0 -30 -17 -58 -62 -106 -32 -32 -39
-47 -35 -65 9 -35 65 -87 125 -116 36 -17 54 -32 58 -48 13 -53 -45 -72 -86
-29 -14 15 -35 25 -51 25 -22 0 -39 16 -94 85 -50 63 -74 85 -91 85 -37 0 -69
16 -80 41 -38 82 -41 95 -29 122 14 32 -3 99 -45 185 -35 70 -41 91 -36 123 5
31 3 39 -12 43 -10 3 -23 21 -30 38 -11 29 -10 34 7 46 15 10 18 21 13 58 l-5
46 30 -6 c24 -6 31 -3 43 19 13 24 39 33 54 18z m-387 -49 c42 -32 41 -61 -4
-87 -28 -16 -35 -17 -51 -5 -11 7 -20 16 -20 21 -1 4 -5 19 -8 32 -4 18 -1 32
11 45 23 26 31 25 72 -6z m-5194 -53 c-10 -23 -26 -44 -35 -47 -20 -6 -23 -20
-7 -30 7 -4 -2 -20 -24 -43 -20 -20 -39 -49 -43 -66 -13 -58 -43 -71 -85 -36
-17 14 -23 29 -24 64 0 29 -7 53 -19 65 -25 28 -17 58 14 55 68 -7 94 -3 138
19 32 16 48 30 50 46 4 25 12 28 30 10 9 -9 12 -8 13 8 0 10 3 14 5 8 3 -7 -3
-30 -13 -53z m5267 -2 c0 -5 -4 -9 -10 -9 -5 0 -10 7 -10 16 0 8 5 12 10 9 6
-3 10 -10 10 -16z m-5089 -131 c20 -15 14 -14 -36 4 -72 25 -105 46 -105 64 0
14 82 -26 141 -68z m3223 -193 c52 -15 59 -15 75 -1 23 21 31 20 31 -3 0 -12
9 -21 26 -25 14 -4 49 -30 78 -59 62 -60 68 -81 86 -267 13 -136 6 -156 -60
-182 -50 -19 -135 -24 -125 -8 7 12 6 12 -123 -17 -70 -15 -86 -22 -97 -43 -7
-14 -35 -41 -61 -60 -40 -28 -45 -35 -29 -38 11 -2 30 -8 42 -14 17 -8 26 -8
38 2 13 11 15 6 15 -37 0 -58 -5 -66 -31 -50 -15 9 -24 5 -61 -32 -37 -37
-123 -95 -91 -61 9 10 5 18 -16 36 -15 12 -35 42 -44 66 -15 41 -15 42 1 20 9
-13 31 -40 49 -60 l31 -37 12 44 c6 24 19 55 27 68 19 29 12 39 -15 22 -30
-19 -52 -5 -52 34 0 31 -6 36 -78 80 -43 26 -92 53 -110 59 -23 9 -32 19 -32
35 0 20 9 16 110 -43 l110 -65 56 28 c50 25 55 30 52 58 -2 19 -11 34 -25 41
-19 9 -13 11 37 11 39 0 66 5 77 15 21 17 85 48 122 58 19 5 28 17 37 46 16
58 24 115 14 109 -4 -3 -11 -23 -15 -45 -4 -22 -11 -40 -17 -40 -6 0 -8 7 -4
15 4 12 2 13 -13 5 -16 -8 -21 -5 -31 19 -11 27 -30 39 -55 37 -5 -1 -13 17
-17 39 -3 22 -10 59 -14 83 l-7 43 54 -5 c51 -5 52 -5 14 4 -50 13 -85 60 -85
113 0 34 -7 42 -32 38 -5 0 -8 6 -8 14 0 12 9 11 48 -9 26 -13 74 -32 106 -41z
m-157 -167 c-3 -7 -5 -2 -5 12 0 14 2 19 5 13 2 -7 2 -19 0 -25z m2758 -67
c-8 -27 -50 -49 -100 -53 -56 -4 -56 18 1 81 l47 52 30 -29 c22 -22 27 -35 22
-51z m-2706 -49 c-20 -92 -50 -130 -165 -209 -44 -29 -48 -29 -73 3 -26 34
-26 40 2 67 160 152 187 181 187 203 0 13 8 27 18 33 13 8 20 5 30 -15 11 -20
11 -36 1 -82z m-3999 -54 c0 -5 -7 -8 -15 -8 -15 0 -20 21 -8 33 7 7 23 -11
23 -25z m44 -23 c11 -8 16 -18 12 -22 -3 -4 -16 3 -28 15 -25 25 -13 29 16 7z
m60 -40 c11 -8 17 -17 14 -21 -7 -6 -48 17 -48 28 0 12 13 9 34 -7z m89 -58
c29 -18 60 -36 70 -40 14 -5 25 -27 13 -27 -12 0 -86 45 -86 52 0 4 -6 8 -13
8 -8 0 -22 9 -32 20 -26 29 -12 25 48 -13z m3243 -53 c19 -15 19 -15 -1 -6
-14 8 -33 5 -69 -9 -27 -10 -53 -22 -59 -28 -5 -5 34 -34 100 -74 136 -81 167
-97 192 -97 22 0 111 40 111 50 0 4 -44 31 -97 60 -128 70 -160 90 -148 90 6
0 66 -31 134 -70 67 -38 130 -70 138 -70 27 0 1 -21 -65 -51 -45 -21 -73 -28
-91 -24 -28 7 -241 130 -281 163 -29 24 -32 21 45 55 71 32 66 31 91 11z
m-3093 -37 c38 -17 49 -37 22 -37 -8 0 -15 3 -15 8 0 4 -13 13 -30 20 -16 8
-30 18 -30 24 0 5 3 8 8 6 4 -2 24 -12 45 -21z m71 -48 c-6 -11 -24 -2 -24 11
0 5 7 7 15 4 8 -4 12 -10 9 -15z m36 -19 c0 -5 7 -10 15 -10 8 0 15 -4 15 -10
0 -13 -11 -12 -32 4 -20 15 -23 26 -8 26 6 0 10 -4 10 -10z m60 -40 c0 -5 7
-10 15 -10 8 0 15 -4 15 -10 0 -13 -11 -12 -32 4 -20 15 -23 26 -8 26 6 0 10
-4 10 -10z m74 -45 c11 -8 17 -17 14 -21 -7 -6 -48 17 -48 28 0 12 13 9 34 -7z
m2740 -30 c20 -9 63 -40 96 -70 53 -49 62 -53 93 -48 19 3 59 -2 91 -11 63
-19 85 -13 123 32 l23 27 0 -87 0 -87 -68 -41 c-38 -22 -77 -40 -88 -40 -32 0
-118 64 -180 135 -36 41 -64 64 -73 61 -9 -2 -26 -7 -38 -11 -23 -6 -23 -5
-23 74 0 45 2 81 4 81 2 0 20 -7 40 -15z m196 -11 c0 -2 -9 0 -20 6 -11 6 -20
13 -20 16 0 2 9 0 20 -6 11 -6 20 -13 20 -16z m-2880 6 c0 -5 -4 -10 -9 -10
-6 0 -13 5 -16 10 -3 6 1 10 9 10 9 0 16 -4 16 -10z m40 -14 c0 -11 -19 -15
-25 -6 -3 5 1 10 9 10 9 0 16 -2 16 -4z m2915 -10 c17 0 39 4 50 8 16 6 15 3
-5 -13 -24 -19 -70 -25 -70 -9 0 4 -6 8 -14 8 -8 0 -18 5 -22 12 -5 8 -2 9 12
3 10 -5 33 -9 49 -9z m-2885 -16 c0 -5 7 -10 15 -10 8 0 15 -4 15 -10 0 -16
-15 -12 -35 10 -10 11 -13 20 -7 20 7 0 12 -4 12 -10z m90 -62 c0 -5 -5 -8
-11 -8 -14 0 -40 26 -32 33 6 7 43 -15 43 -25z m4515 -28 c117 -46 114 -54 -4
-10 l-81 29 0 -229 c0 -147 -4 -230 -10 -230 -6 0 -10 87 -10 240 0 132 1 240
3 240 1 0 47 -18 102 -40z m-1335 8 c-47 -40 -147 -80 -180 -73 -40 9 -38 22
3 18 22 -2 55 9 107 36 85 44 106 50 70 19z m-3136 -3 c11 -8 17 -17 14 -21
-7 -6 -48 17 -48 28 0 12 13 9 34 -7z m51 -35 c-3 -5 -10 -10 -16 -10 -5 0 -9
5 -9 10 0 6 7 10 16 10 8 0 12 -4 9 -10z m35 -20 c0 -5 7 -10 15 -10 8 0 15
-4 15 -10 0 -16 -15 -12 -35 10 -10 11 -13 20 -7 20 7 0 12 -4 12 -10z m2525
-89 c132 -76 139 -76 238 -17 44 27 58 31 55 19 -2 -9 -36 -34 -76 -56 -66
-35 -75 -38 -105 -28 -45 16 -287 161 -287 173 0 5 19 -2 43 -16 23 -13 83
-47 132 -75z m-2413 20 c36 -22 107 -67 158 -100 51 -34 98 -61 106 -61 8 0
14 -4 14 -10 0 -16 -35 -11 -56 8 -10 9 -31 23 -46 31 -16 8 -28 18 -28 23 0
4 -6 8 -13 8 -7 0 -22 8 -33 18 -10 10 -36 26 -56 35 -20 10 -40 22 -43 27 -3
5 -21 17 -40 26 -19 9 -35 20 -35 25 0 13 3 12 72 -30z m2080 -46 c38 0 68 4
68 8 0 5 5 5 11 2 14 -9 57 -16 94 -16 44 0 120 -16 211 -46 l81 -27 74 22
c48 14 95 20 134 18 33 -1 72 1 87 5 15 4 30 4 33 0 2 -5 26 -9 52 -10 95 -2
178 -11 181 -20 2 -5 11 -7 21 -4 10 2 25 -2 33 -10 10 -10 31 -14 69 -12 30
2 60 -1 67 -7 8 -7 17 -7 27 2 13 11 14 10 9 -4 -4 -11 -1 -16 10 -16 9 0 19
-7 22 -15 5 -12 10 -13 20 -5 8 7 20 8 31 3 17 -8 37 -9 56 -3 19 6 33 6 44
-2 6 -5 13 -5 16 -1 3 4 27 7 54 5 26 -2 78 -3 115 -4 54 0 66 -3 61 -14 -9
-24 -180 -101 -293 -132 -181 -51 -235 -57 -510 -56 -277 0 -379 12 -564 71
-138 43 -291 128 -365 202 -42 42 -62 88 -33 75 9 -5 47 -8 84 -9z m-1741
-161 c175 -110 476 -174 821 -174 110 0 168 -4 168 -10 0 -13 -306 -7 -450 8
-106 11 -235 40 -353 78 -83 26 -237 102 -237 116 0 12 7 10 51 -18z m1376
-126 c4 -7 15 -35 24 -63 9 -27 20 -59 24 -70 8 -20 8 -20 -13 -1 -12 11 -22
29 -22 42 0 13 -4 26 -10 29 -5 3 -10 17 -10 31 0 20 -5 24 -32 25 -28 0 -30
2 -13 9 29 12 43 12 52 -2z m-111 -17 c-8 -13 -61 -23 -146 -26 -51 -2 -65 -1
-45 5 17 4 53 9 80 10 28 1 61 6 75 10 35 11 42 11 36 1z m2564 -66 c0 -8 -4
-17 -10 -20 -6 -4 -10 5 -10 20 0 15 4 24 10 20 6 -3 10 -12 10 -20z m-28 -57
c-7 -7 -12 -8 -12 -2 0 14 12 26 19 19 2 -3 -1 -11 -7 -17z m-2332 -85 c0 -3
-9 2 -20 12 -11 10 -20 28 -20 39 0 17 4 15 20 -12 11 -18 20 -35 20 -39z
m2305 30 c-9 -17 -22 -36 -30 -43 -8 -7 -15 -17 -15 -23 0 -15 -91 -107 -106
-107 -6 0 -19 -9 -29 -20 -10 -11 -23 -20 -28 -20 -6 0 -19 -7 -29 -17 -22
-19 -50 -37 -98 -59 -19 -8 -57 -26 -85 -39 -68 -33 -198 -73 -270 -85 -326
-55 -558 -74 -635 -51 -19 5 -105 19 -190 31 -154 21 -326 69 -431 119 -24 12
-48 21 -54 21 -7 0 -20 9 -30 20 -24 26 -20 25 52 -9 145 -71 289 -111 509
-145 262 -40 440 -34 769 25 265 48 559 213 666 374 44 68 60 80 34 28z
m-2277 -62 c3 -8 -1 -12 -9 -9 -7 2 -15 10 -17 17 -3 8 1 12 9 9 7 -2 15 -10
17 -17z m40 -40 c3 -8 -1 -12 -9 -9 -7 2 -15 10 -17 17 -3 8 1 12 9 9 7 -2 15
-10 17 -17z m77 -66 c28 -25 45 -45 39 -45 -6 0 -19 9 -29 20 -10 11 -23 20
-28 20 -13 0 -47 30 -47 42 0 16 15 7 65 -37z m89 -60 c11 -8 16 -18 12 -22
-3 -4 -16 3 -28 15 -25 25 -13 29 16 7z"/>
<path d="M5021 9124 c0 -11 3 -14 6 -6 3 7 2 16 -1 19 -3 4 -6 -2 -5 -13z"/>
<path d="M5110 9070 c0 -5 5 -10 10 -10 6 0 10 5 10 10 0 6 -4 10 -10 10 -5 0
-10 -4 -10 -10z"/>
<path d="M5027 9063 c-4 -3 -7 -11 -7 -17 0 -6 5 -5 12 2 6 6 9 14 7 17 -3 3
-9 2 -12 -2z"/>
<path d="M4620 9051 c0 -5 5 -13 10 -16 6 -3 10 -2 10 4 0 5 -4 13 -10 16 -5
3 -10 2 -10 -4z"/>
<path d="M4550 9025 c0 -8 4 -15 10 -15 5 0 7 7 4 15 -4 8 -8 15 -10 15 -2 0
-4 -7 -4 -15z"/>
<path d="M4488 8577 c-5 -10 -8 -37 -7 -60 0 -38 1 -40 10 -17 6 13 9 40 7 60
-2 27 -5 31 -10 17z"/>
<path d="M4828 8407 c-36 -10 -38 -13 -38 -51 0 -46 -5 -55 -40 -79 -13 -9
-19 -17 -11 -17 7 0 39 18 71 41 55 38 59 44 58 80 0 21 -1 38 -2 38 0 -1 -18
-6 -38 -12z"/>
<path d="M5553 8240 c-18 -11 -33 -27 -33 -36 0 -10 -12 -37 -26 -61 l-26 -45
23 13 c29 15 49 34 49 47 0 5 14 26 30 47 46 57 40 70 -17 35z"/>
<path d="M6451 8214 c0 -11 3 -14 6 -6 3 7 2 16 -1 19 -3 4 -6 -2 -5 -13z"/>
<path d="M2676 7835 c-10 -26 -7 -35 9 -35 17 0 19 18 6 38 -7 11 -10 10 -15
-3z"/>
<path d="M3008 7773 c7 -3 16 -2 19 1 4 3 -2 6 -13 5 -11 0 -14 -3 -6 -6z"/>
<path d="M6452 7741 c-1 -19 -5 -31 -9 -28 -7 7 -42 -58 -43 -79 0 -10 -62
-97 -85 -119 -22 -22 -125 -86 -225 -140 -58 -32 -128 -73 -156 -91 -28 -19
-56 -34 -63 -34 -6 0 -11 -3 -11 -8 0 -4 -17 -16 -37 -27 -21 -10 -50 -30 -65
-44 -16 -14 -28 -21 -28 -17 0 5 -6 4 -12 -1 -21 -17 -77 -32 -83 -24 -2 5
-14 11 -26 14 -11 3 -19 4 -17 3 13 -13 232 -157 269 -179 l46 -26 5 67 c12
166 92 250 370 391 100 52 183 94 183 95 0 50 -12 270 -13 247z"/>
<path d="M7257 7743 c7 -19 36 -43 65 -55 17 -7 68 24 68 42 0 4 -28 13 -63
19 -80 14 -78 14 -70 -6z"/>
<path d="M3870 7743 c0 -7 33 -32 42 -33 4 0 5 6 2 14 -5 13 -44 30 -44 19z"/>
<path d="M7630 7638 c-6 -18 -23 -82 -36 -143 -14 -60 -27 -118 -29 -127 -11
-51 -54 -84 -165 -130 -30 -12 -61 -30 -68 -40 -7 -10 -19 -18 -26 -18 -26 0
-38 -30 -52 -132 -11 -78 -12 -109 -4 -128 10 -21 8 -27 -9 -41 -12 -10 -30
-14 -46 -12 -52 11 -20 -52 49 -92 38 -22 47 -24 75 -14 22 8 40 8 54 2 61
-28 77 -37 77 -42 0 -3 -16 -17 -36 -31 l-36 -24 -39 22 c-30 17 -39 19 -39 8
0 -20 45 -46 81 -46 31 0 144 37 197 64 56 29 84 86 53 109 -35 24 -33 52 25
279 55 216 56 226 50 318 -7 116 -28 216 -48 236 -14 14 -17 12 -28 -18z"/>
<path d="M2244 7559 c14 -75 55 -120 171 -190 95 -58 119 -79 178 -150 38 -46
97 -113 133 -149 35 -36 64 -73 64 -83 0 -20 -68 -57 -104 -57 -13 0 -53 15
-88 33 -56 30 -131 79 -497 324 -52 35 -98 63 -103 63 -22 0 -3 -22 40 -47 49
-28 223 -143 326 -214 98 -68 298 -179 323 -179 12 0 42 5 67 12 37 10 49 9
79 -5 19 -9 45 -17 56 -17 12 0 40 -9 63 -21 58 -29 106 -29 130 1 29 36 6 49
-32 16 -42 -35 -62 -33 -110 10 -43 39 -43 51 4 102 27 30 115 72 151 72 27 0
27 0 21 -52 l-6 -53 48 -22 c26 -12 65 -25 87 -28 35 -6 45 -3 85 28 26 19 62
44 80 56 29 17 31 21 14 21 -36 0 -47 24 -40 82 l7 51 -30 -32 c-24 -26 -37
-32 -63 -29 -31 3 -33 1 -30 -27 2 -16 15 -47 29 -67 21 -31 23 -41 13 -53
-21 -25 -56 -18 -83 18 -59 78 -98 163 -102 226 -2 38 -11 71 -23 89 -13 19
-19 46 -20 92 -1 61 -16 110 -33 110 -5 0 -2 -21 6 -47 20 -67 19 -82 -10 -95
-34 -15 -60 9 -82 79 l-17 53 -50 0 c-30 -1 -59 -7 -71 -16 -19 -14 -19 -17
-4 -42 62 -109 63 -111 49 -127 -7 -8 -18 -15 -25 -15 -15 0 -91 87 -129 148
-17 27 -34 42 -47 42 -11 0 -32 6 -47 14 -15 7 -52 16 -82 20 -30 4 -91 18
-135 32 -44 14 -91 29 -105 34 -14 4 -34 11 -44 15 -17 8 -19 5 -12 -26z m816
-398 c34 -25 31 -41 -9 -65 l-34 -20 -39 43 c-53 60 -51 75 10 67 26 -3 58
-14 72 -25z"/>
<path d="M3339 7544 c-12 -14 -11 -16 5 -13 11 2 21 10 24 17 5 17 -13 15 -29
-4z"/>
<path d="M4247 7487 c82 -77 102 -111 110 -191 3 -36 9 -66 12 -66 3 0 30 14
59 31 l53 30 -34 38 c-54 60 -116 113 -192 166 l-70 49 62 -57z"/>
<path d="M6850 7410 c0 -12 101 -96 168 -139 54 -34 82 -35 82 -2 0 14 -31 36
-119 85 -124 69 -131 72 -131 56z"/>
<path d="M3320 7400 c0 -5 5 -10 10 -10 6 0 10 5 10 10 0 6 -4 10 -10 10 -5 0
-10 -4 -10 -10z"/>
<path d="M3205 7390 c-3 -5 1 -10 10 -10 9 0 13 5 10 10 -3 6 -8 10 -10 10 -2
0 -7 -4 -10 -10z"/>
<path d="M7090 7374 c0 -10 95 -74 110 -74 5 0 10 7 10 15 0 8 -7 15 -15 15
-8 0 -24 9 -35 20 -21 21 -70 38 -70 24z"/>
<path d="M3265 7340 c-3 -5 -1 -10 4 -10 6 0 11 5 11 10 0 6 -2 10 -4 10 -3 0
-8 -4 -11 -10z"/>
<path d="M3447 7283 c-4 -3 -7 -11 -7 -17 0 -6 5 -5 12 2 6 6 9 14 7 17 -3 3
-9 2 -12 -2z"/>
<path d="M1510 7032 c0 -240 0 -243 25 -293 14 -27 43 -66 64 -87 33 -31 339
-227 490 -313 40 -23 97 -58 354 -218 l48 -30 87 66 c50 39 138 91 207 124
113 55 200 82 498 153 27 6 27 8 21 54 -4 35 -1 61 15 102 12 30 21 56 21 57
0 2 -30 -9 -67 -23 -161 -63 -236 -77 -408 -77 -127 0 -178 4 -250 20 -123 29
-169 51 -410 198 -116 70 -262 159 -325 198 -229 139 -301 196 -349 277 l-21
35 0 -243z"/>
<path d="M4860 7124 c0 -8 5 -12 10 -9 6 3 10 10 10 16 0 5 -4 9 -10 9 -5 0
-10 -7 -10 -16z"/>
<path d="M4580 7065 c-6 -33 -1 -59 16 -88 8 -15 21 -18 60 -15 l49 3 -30 13
c-16 7 -38 22 -48 33 -10 11 -22 17 -27 14 -5 -3 -10 12 -12 32 -3 37 -3 37
-8 8z"/>
<path d="M4766 7062 c-3 -6 -1 -14 5 -17 14 -9 20 -2 10 14 -6 8 -11 9 -15 3z"/>
<path d="M4980 7044 c0 -8 5 -12 10 -9 6 3 10 10 10 16 0 5 -4 9 -10 9 -5 0
-10 -7 -10 -16z"/>
<path d="M6710 7028 c-50 -27 -62 -58 -34 -89 19 -21 38 -25 32 -7 -5 14 15
38 30 38 10 0 22 -23 22 -41 0 -6 -9 -7 -21 -4 -14 5 -19 3 -15 -3 20 -33 161
-23 207 15 35 30 40 58 8 48 -17 -6 -20 -4 -15 12 8 26 -24 40 -106 49 -55 5
-69 2 -108 -18z m86 -53 c-4 -38 -16 -43 -16 -7 0 18 4 32 9 32 5 0 8 -11 7
-25z m54 -5 c0 -5 -4 -10 -10 -10 -5 0 -10 5 -10 10 0 6 5 10 10 10 6 0 10 -4
10 -10z m5 -50 c-5 -8 -11 -8 -17 -2 -6 6 -7 16 -3 22 5 8 11 8 17 2 6 -6 7
-16 3 -22z"/>
<path d="M6960 7030 c0 -5 5 -10 11 -10 5 0 7 5 4 10 -3 6 -8 10 -11 10 -2 0
-4 -4 -4 -10z"/>
<path d="M5065 6991 c-3 -5 -1 -12 5 -16 5 -3 10 1 10 9 0 18 -6 21 -15 7z"/>
<path d="M4980 6980 c0 -5 5 -10 11 -10 5 0 7 5 4 10 -3 6 -8 10 -11 10 -2 0
-4 -4 -4 -10z"/>
<path d="M4665 6909 c-9 -14 -2 -20 14 -10 8 6 9 11 3 15 -6 3 -14 1 -17 -5z"/>
<path d="M4920 6810 c-13 -8 -12 -10 3 -10 9 0 17 5 17 10 0 12 -1 12 -20 0z"/>
<path d="M7020 6778 c0 -26 -27 -70 -56 -94 -19 -15 -19 -16 1 -10 18 5 17 4
-3 -14 -72 -61 -269 -51 -344 17 -23 21 -23 0 -1 -23 48 -48 168 -73 260 -54
110 23 223 93 223 140 0 18 -48 60 -69 60 -6 0 -11 -10 -11 -22z"/>
<path d="M4704 6771 c13 -21 85 -51 118 -50 30 1 28 3 -22 18 -30 10 -66 23
-79 30 -15 8 -21 9 -17 2z"/>
<path d="M4884 6729 c-8 -14 43 -29 66 -21 18 7 14 9 -20 19 -22 6 -43 6 -46
2z"/>
<path d="M4917 6574 c-4 -40 -15 -71 -36 -103 -17 -25 -41 -66 -52 -91 -12
-25 -31 -58 -41 -75 -20 -30 -20 -30 11 3 18 18 34 46 38 63 3 16 12 29 19 29
16 0 21 -19 32 -118 l9 -74 -78 4 c-92 4 -117 19 -80 47 24 18 23 18 -27 3
-28 -9 -49 -19 -46 -23 2 -4 13 -5 24 -2 11 3 20 1 20 -5 0 -12 -24 -22 -51
-22 -10 0 -19 -4 -19 -9 0 -13 316 -25 337 -12 14 8 15 11 3 11 -12 0 -11 3 3
11 25 15 17 146 -14 214 -15 33 -24 77 -27 128 -3 42 -8 77 -12 77 -4 0 -10
-25 -13 -56z"/>
<path d="M3446 6253 c4 -16 10 -37 14 -48 11 -32 4 -54 -26 -78 -49 -39 -124
-51 -124 -19 0 10 -19 28 -48 43 l-48 27 -13 -37 c-7 -20 -15 -57 -18 -82 -4
-39 -1 -50 22 -77 26 -32 27 -36 30 -180 3 -175 16 -246 50 -282 20 -21 22
-29 12 -39 -6 -7 -7 -11 -2 -9 6 1 26 -7 46 -20 109 -67 234 -69 301 -5 32 30
48 25 29 -10 -29 -55 -147 -84 -240 -60 -81 20 -151 56 -146 73 3 8 -5 3 -18
-13 -17 -20 -26 -24 -34 -16 -9 9 -10 7 -6 -10 13 -51 152 -101 283 -101 102
0 162 24 197 80 12 19 30 43 39 52 12 12 15 26 10 49 -3 17 -1 49 4 70 14 52
0 99 -50 169 -22 30 -49 70 -61 88 -12 18 -24 31 -26 28 -3 -3 -2 -10 3 -17
11 -18 14 -127 4 -153 -11 -31 -46 -39 -68 -17 -18 19 -52 35 -65 32 -5 -1 -6
3 -3 8 4 5 1 13 -6 18 -23 14 -61 105 -60 141 2 44 15 59 63 72 43 12 47 21
23 41 -13 11 -15 25 -9 73 5 50 2 74 -22 148 -15 48 -31 88 -36 88 -4 0 -4
-12 -1 -27z m-34 -670 c45 -25 76 -59 40 -46 -44 17 -140 72 -134 77 8 9 39
-2 94 -31z"/>
<path d="M1522 6228 c-8 -8 -12 -60 -12 -169 l0 -158 48 22 c73 33 152 30 232
-10 89 -45 260 -162 283 -195 25 -33 31 -122 11 -159 -14 -29 -212 -209 -229
-209 -5 0 -16 -9 -72 -55 -33 -27 -42 -76 -43 -235 -2 -117 -5 -140 -23 -172
-11 -21 -24 -38 -28 -38 -4 0 -9 -7 -13 -15 -5 -13 -1 -13 32 1 112 47 234 94
247 94 21 0 185 -83 251 -127 32 -21 60 -33 69 -29 9 3 14 2 10 -3 -3 -5 8
-16 24 -24 l29 -14 7 186 7 185 28 -59 c38 -82 97 -134 280 -248 273 -168 365
-211 540 -250 131 -29 445 -31 600 -3 132 23 306 73 456 131 64 25 118 45 120
45 2 0 4 -12 3 -27 0 -16 4 -71 9 -123 10 -96 8 -505 -2 -593 -4 -26 -8 -93
-10 -150 -5 -117 -14 -177 -28 -177 -5 0 -6 -4 -3 -10 3 -5 2 -10 -3 -10 -5 0
-20 -10 -33 -21 -13 -12 -52 -35 -86 -51 -35 -17 -63 -31 -63 -33 0 -2 26 5
58 14 31 10 68 17 82 16 14 -2 70 -5 125 -9 55 -3 101 -9 103 -14 1 -4 18 -7
38 -6 33 2 116 -34 190 -83 13 -8 24 -13 24 -10 0 3 -35 30 -77 60 -91 64
-153 128 -108 111 8 -4 15 -2 15 4 0 5 -9 12 -21 15 -16 4 -19 11 -14 27 10
32 14 90 5 85 -8 -5 -24 51 -21 74 2 8 -3 24 -10 37 -6 13 -8 31 -4 41 14 32
12 94 -3 88 -8 -3 -10 0 -5 8 11 17 13 177 2 177 -5 0 -9 5 -9 11 0 5 4 8 10
4 12 -7 9 98 -4 106 -5 4 -4 19 2 37 9 27 8 30 -5 25 -11 -4 -14 -2 -9 5 4 6
9 24 11 39 2 16 6 37 10 48 6 16 5 17 -4 5 -14 -20 -14 -7 0 23 8 17 8 31 1
42 -12 22 -4 57 12 48 6 -4 5 1 -2 10 -9 10 -13 37 -12 69 5 143 4 177 -2 233
-4 33 -9 71 -12 85 -2 14 -9 61 -15 105 -6 44 -13 89 -15 100 -3 11 -5 27 -5
35 -1 13 -2 13 -11 0 -7 -11 -10 -5 -10 25 -1 22 -4 57 -8 78 l-7 38 -60 -37
c-377 -228 -826 -301 -1236 -200 -111 28 -154 48 -344 164 -247 150 -361 234
-404 297 -23 34 -57 144 -65 214 -6 48 -6 49 -14 29 -6 -15 -46 6 -257 133
-138 83 -257 157 -265 164 -24 21 -249 145 -263 145 -7 0 -18 -5 -25 -12z"/>
<path d="M3600 6191 c24 -20 40 -26 40 -16 0 2 -15 12 -32 20 l-33 16 25 -20z"/>
<path d="M8462 6185 c0 -16 2 -22 5 -12 2 9 2 23 0 30 -3 6 -5 -1 -5 -18z"/>
<path d="M5087 6097 c-3 -8 -16 -17 -29 -19 -15 -3 -8 -6 20 -9 46 -5 49 -2
29 25 -12 16 -15 17 -20 3z"/>
<path d="M5345 6060 c-11 -5 -35 -9 -52 -9 -30 -1 -33 -4 -33 -30 0 -23 -6
-32 -27 -40 l-28 -11 32 5 c49 7 103 32 110 52 4 10 14 23 22 30 18 14 5 16
-24 3z"/>
<path d="M3641 6013 c-1 -13 -5 -23 -11 -23 -5 0 -10 -10 -10 -22 -1 -30 -21
-56 -40 -50 -26 8 63 -82 102 -103 13 -7 66 -37 118 -67 108 -62 130 -71 130
-58 0 6 -9 10 -21 10 -11 0 -18 4 -14 10 7 12 -56 109 -72 109 -7 1 -13 6 -13
11 0 6 -11 22 -25 36 -14 14 -25 30 -25 36 0 5 -7 8 -14 5 -10 -4 -13 -1 -9 9
3 8 0 21 -7 29 -6 8 -10 18 -7 22 2 4 -11 18 -29 30 -22 14 -34 18 -35 10 0
-7 -4 -3 -9 8 -8 19 -9 19 -9 -2z"/>
<path d="M8399 5923 c-31 -7 -852 -423 -885 -448 -60 -46 -105 -99 -135 -157
-28 -55 -29 -64 -29 -188 0 -87 4 -130 11 -130 6 0 19 -10 29 -22 21 -26 11
-48 -21 -48 -11 0 -19 -6 -20 -12 0 -7 0 -146 1 -308 1 -276 6 -405 17 -423 6
-9 24 10 42 46 8 15 40 55 72 89 32 34 57 64 57 67 -3 14 15 40 23 35 8 -5 13
9 10 29 0 4 6 7 15 7 10 0 14 6 10 15 -3 9 0 15 10 15 8 0 12 5 9 10 -3 6 1
10 10 10 9 0 14 4 10 9 -3 6 3 14 12 20 10 6 14 11 9 11 -14 0 25 40 39 40 20
0 39 27 23 33 -8 4 -7 6 5 6 9 1 17 5 17 9 0 5 18 7 40 6 22 -1 40 3 40 8 0 6
12 8 31 4 28 -5 30 -4 25 17 -3 12 -3 16 0 10 8 -19 31 -16 43 5 9 15 12 15
21 2 8 -13 11 -11 16 8 4 12 10 23 15 23 5 1 15 2 22 3 6 1 11 6 10 12 -2 14
38 15 54 2 10 -8 12 -7 8 3 -3 9 1 15 12 17 71 7 88 12 160 45 12 5 19 15 16
23 -3 9 2 14 13 14 16 0 17 2 4 10 -13 8 -12 10 5 11 11 1 23 1 27 0 4 0 4 7
1 16 -5 12 -2 15 10 10 17 -7 43 27 39 50 -1 6 7 14 18 18 11 4 18 11 15 16
-4 5 -1 9 5 9 7 0 9 22 6 65 -6 74 -1 96 20 88 8 -3 24 4 35 15 18 20 19 38
19 380 0 329 -1 360 -17 374 -25 21 -36 25 -54 21z m-713 -760 c20 -12 24 -22
19 -41 -11 -44 37 -73 49 -29 5 17 -1 28 -25 48 -20 18 -27 29 -19 34 18 11
53 -3 95 -41 l39 -35 -18 -47 c-23 -60 -25 -96 -6 -99 84 -11 90 -14 90 -37 0
-26 -21 -36 -76 -36 -18 0 -58 -14 -90 -31 -68 -36 -113 -35 -164 1 -30 22
-31 24 -25 74 9 68 17 82 34 62 8 -9 22 -16 33 -16 18 0 18 2 -4 33 -18 26
-23 44 -21 90 2 57 11 85 20 60 7 -20 23 -15 23 7 0 24 13 25 46 3z m-220
-138 c32 -24 64 -80 64 -110 0 -28 -20 -55 -40 -55 -14 0 -20 7 -20 21 0 31
-18 60 -60 99 -21 19 -41 46 -45 59 -7 23 -6 23 31 16 22 -3 53 -17 70 -30z
m768 -217 c-3 -4 -12 -8 -20 -8 -8 0 -13 4 -10 8 3 5 12 9 20 9 8 0 13 -4 10
-9z"/>
<path d="M2342 5845 c0 -16 2 -22 5 -12 2 9 2 23 0 30 -3 6 -5 -1 -5 -18z"/>
<path d="M6500 5727 c-19 -7 -210 -102 -425 -211 -214 -109 -415 -207 -445
-219 -47 -17 -88 -21 -280 -26 -219 -6 -227 -7 -285 -34 -68 -32 -128 -85
-156 -139 -20 -39 -27 -76 -9 -48 8 13 10 12 10 -2 0 -10 5 -18 10 -18 6 0 10
4 10 9 0 11 31 24 39 16 3 -3 0 -9 -6 -13 -7 -5 -2 -12 14 -19 19 -9 24 -9 20
0 -2 7 3 19 11 27 14 13 15 12 8 -5 -21 -53 -27 -167 -24 -446 3 -298 3 -305
27 -349 40 -76 91 -140 145 -179 71 -52 75 -54 72 -34 -2 11 11 23 38 36 23
10 51 24 63 29 16 8 45 7 105 -5 117 -21 280 -11 325 21 23 16 56 26 110 32
43 5 101 19 128 32 28 12 61 23 75 24 14 1 25 3 25 4 0 1 25 3 55 5 57 4 94
10 108 19 4 2 8 -4 8 -14 0 -15 -3 -17 -15 -7 -12 10 -14 9 -9 -5 4 -10 1 -19
-8 -22 -8 -3 -12 -1 -9 4 3 6 -1 7 -9 4 -9 -3 -13 -10 -10 -15 3 -5 -7 -9 -21
-9 -14 0 -24 -4 -21 -9 3 -5 -26 -25 -64 -45 -39 -21 -70 -39 -70 -41 0 -9 59
19 278 131 200 103 229 115 261 110 20 -3 64 -8 99 -10 l62 -4 0 636 c0 414
-4 650 -11 675 -27 99 -129 150 -229 114z m-571 -823 c32 -23 87 -37 146 -38
l50 -1 1 -90 c2 -110 -13 -148 -68 -176 -54 -27 -62 -54 -51 -164 11 -99 4
-135 -26 -135 -27 0 -44 49 -38 114 4 51 3 55 -13 46 -27 -15 -28 -27 -6 -103
20 -68 20 -69 1 -83 -10 -8 -22 -14 -26 -14 -5 0 -24 24 -44 54 -39 58 -71 92
-59 62 4 -10 0 -18 -12 -23 -44 -16 -71 -45 -72 -75 -2 -74 -36 -109 -118
-122 -37 -7 -41 -10 -36 -32 4 -23 2 -25 -24 -22 -57 6 -89 128 -34 128 31 0
33 18 2 34 -62 32 -117 132 -89 160 7 7 19 10 27 8 8 -3 2 9 -13 27 -46 55
-38 91 32 159 61 59 81 88 81 119 0 30 16 46 38 39 52 -17 33 -90 -48 -181
-62 -71 -75 -105 -16 -44 24 25 56 41 117 61 98 32 166 48 174 40 3 -3 5 -1 5
4 0 6 -5 15 -11 21 -6 6 -11 31 -12 56 -2 37 4 53 31 89 18 23 41 55 50 70 20
32 29 34 61 12z m-163 -602 c-14 -28 -46 -51 -46 -33 0 9 53 69 58 65 2 -1 -3
-16 -12 -32z"/>
<path d="M5900 4886 c0 -9 5 -16 10 -16 6 0 10 4 10 9 0 6 -4 13 -10 16 -5 3
-10 -1 -10 -9z"/>
<path d="M5850 4705 c0 -8 7 -15 15 -15 8 0 15 7 15 15 0 8 -7 15 -15 15 -8 0
-15 -7 -15 -15z"/>
<path d="M5980 4659 c0 -24 23 -21 28 4 2 10 -3 17 -12 17 -10 0 -16 -9 -16
-21z"/>
<path d="M5900 4651 c0 -6 5 -13 10 -16 6 -4 7 -12 4 -18 -5 -9 -4 -9 6 0 7 6
10 19 7 27 -7 17 -27 22 -27 7z"/>
<path d="M1280 5328 c0 -2 14 -30 30 -62 26 -52 30 -69 30 -145 0 -96 -14
-131 -54 -131 -12 0 -26 -3 -29 -7 -7 -7 210 -132 231 -133 9 0 12 26 12 98 1
53 3 114 6 134 7 47 -19 128 -49 155 -28 26 -177 102 -177 91z"/>
<path d="M1875 4839 c-9 -13 -19 -5 99 -72 72 -41 106 -55 123 -51 14 4 23 2
23 -5 0 -6 -4 -11 -10 -11 -5 0 -10 -3 -10 -7 0 -11 50 -33 72 -33 25 0 78 28
78 40 0 12 -13 13 -25 1 -16 -14 -74 -21 -80 -10 -4 5 -3 8 2 7 13 -5 103 33
103 43 0 12 -4 11 -33 -2 -22 -10 -31 -6 -79 30 -59 44 -74 50 -64 26 3 -8 0
-15 -6 -15 -7 0 -6 -5 2 -15 22 -27 -3 -16 -85 35 -83 51 -99 57 -110 39z"/>
<path d="M1980 4651 c24 -20 40 -26 40 -16 0 2 -15 12 -32 20 l-33 16 25 -20z"/>
<path d="M2087 4640 c-37 -23 -43 -30 -25 -30 18 0 66 36 58 43 -3 2 -17 -3
-33 -13z"/>
<path d="M2260 4604 c-133 -72 -150 -84 -150 -105 0 -11 -7 -22 -16 -26 -24
-9 1 -20 34 -15 15 2 70 25 122 51 l95 46 3 43 c4 52 -3 53 -88 6z"/>
<path d="M1890 4570 c33 -29 159 -104 166 -98 2 3 -35 29 -83 58 -104 63 -116
69 -83 40z"/>
<path d="M8672 4488 c-15 -23 -18 -36 -10 -45 14 -17 33 3 43 45 9 42 -7 41
-33 0z"/>
<path d="M2387 3993 c-4 -3 -7 -16 -6 -27 0 -19 1 -19 10 3 10 24 8 36 -4 24z"/>
<path d="M2462 3570 c0 -14 2 -19 5 -12 2 6 2 18 0 25 -3 6 -5 1 -5 -13z"/>
<path d="M2481 3500 c0 -8 4 -22 9 -30 12 -18 12 -2 0 25 -6 13 -9 15 -9 5z"/>
<path d="M2497 3429 c-6 -22 25 -84 36 -72 4 3 7 -1 7 -10 0 -9 4 -17 9 -17 8
0 -32 105 -44 118 -1 1 -5 -7 -8 -19z"/>
<path d="M2284 3004 c-4 -14 -2 -30 5 -37 8 -8 11 -1 11 26 0 43 -7 48 -16 11z"/>
<path d="M7226 2927 c3 -10 9 -15 12 -12 3 3 0 11 -7 18 -10 9 -11 8 -5 -6z"/>
</g>
</svg>
